<?xml version="1.0" encoding="UTF-8"?>
<svg width="28" height="28" viewBox="0 0 28 28" fill="none" xmlns="http://www.w3.org/2000/svg" role="img" aria-label="Hotel Sheraton Salta">
  <defs>
    <linearGradient id="g" x1="0" y1="0" x2="28" y2="28" gradientUnits="userSpaceOnUse">
      <stop offset="0" stop-color="#D7B95A"/>
      <stop offset="1" stop-color="#C9A227"/>
    </linearGradient>
  </defs>
  <circle cx="14" cy="14" r="12.5" stroke="url(#g)" stroke-width="1.5"/>
  <path d="M19.2 10.2c0-2.1-1.9-3.6-5.1-3.6-2.4 0-4.3.9-5.6 2.3l1.9 1.4c.9-1 2.1-1.6 3.7-1.6 1.8 0 2.8.7 2.8 1.9 0 1-1 1.5-2.9 1.9l-1.5.3c-3 .6-4.7 1.8-4.7 4.2 0 2.6 2.2 4.3 5.6 4.3 2.4 0 4.4-.8 5.8-2.2l-1.9-1.4c-1 .9-2.3 1.6-4 1.6-1.9 0-3-.7-3-2 0-1.1.9-1.6 2.8-2l1.5-.3c3-.6 4.6-1.8 4.6-4.1z" fill="#E5E7EB"/>
</svg>
